<?xml version="1.0" standalone="no"?>
<!DOCTYPE svg PUBLIC "-//W3C//DTD SVG 20010904//EN"
 "http://www.w3.org/TR/2001/REC-SVG-20010904/DTD/svg10.dtd">
<svg version="1.0" xmlns="http://www.w3.org/2000/svg"
 width="300.000000pt" height="225.000000pt" viewBox="0 0 300.000000 225.000000"
 preserveAspectRatio="xMidYMid meet">

<g transform="translate(0.000000,225.000000) scale(0.100000,-0.100000)"
fill="#000000" stroke="none">
<path d="M1046 1561 c-22 -5 -36 -19 -59 -60 l-31 -54 30 7 c16 5 81 19 144
32 63 14 116 26 117 28 2 2 -18 12 -44 23 -54 23 -114 32 -157 24z"/>
<path d="M1145 1464 c-44 -8 -111 -24 -148 -35 l-69 -20 -29 -63 c-53 -113
-48 -229 13 -321 36 -54 97 -99 121 -89 11 4 17 1 17 -7 0 -11 3 -11 10 1 5 8
10 10 10 4 0 -5 7 -19 15 -30 9 -11 6 1 -6 30 -67 154 46 374 271 528 25 17
24 17 -50 17 -41 -1 -111 -7 -155 -15z m113 -32 c-9 -21 -97 -92 -103 -82 -3
5 -11 10 -17 10 -6 0 -4 -8 6 -19 14 -16 15 -20 2 -30 -8 -7 -16 -8 -19 -4 -9
15 1 66 15 74 9 6 6 9 -10 9 -15 0 -21 -4 -16 -12 5 -8 2 -9 -10 -5 -10 4 -23
7 -29 7 -7 1 2 7 18 15 17 7 26 14 20 15 -15 3 86 28 118 29 16 1 27 -3 25 -7z"/>
<path d="M1130 1319 c0 -5 5 -7 10 -4 6 3 10 8 10 11 0 2 -4 4 -10 4 -5 0 -10
-5 -10 -11z"/>
<path d="M1988 1375 c-86 -28 -134 -114 -126 -226 10 -138 146 -217 291 -170
33 11 37 16 37 47 0 19 -2 34 -4 34 -2 0 -21 -7 -42 -16 -113 -47 -236 57
-205 174 14 52 38 82 77 98 43 18 111 18 147 0 27 -15 27 -15 27 19 0 39 -10
44 -95 51 -37 2 -78 -2 -107 -11z"/>
<path d="M744 1331 c-55 -27 -106 -57 -113 -65 -8 -9 -13 -36 -13 -60 2 -90
63 -199 146 -263 44 -33 150 -74 188 -72 13 1 32 -2 43 -6 11 -4 2 6 -21 22
-60 45 -111 110 -134 170 -29 77 -27 190 4 266 15 35 19 57 12 57 -6 0 -56
-23 -112 -49z"/>
<path d="M1355 1177 l0 -203 28 4 27 4 0 144 c0 79 3 144 8 144 4 0 30 -64 58
-142 l50 -143 43 0 44 0 51 149 51 150 3 -152 3 -152 39 0 40 0 0 200 0 200
-53 0 -53 0 -53 -162 c-29 -90 -57 -167 -61 -171 -4 -5 -10 3 -14 17 -3 13
-29 90 -57 170 l-51 146 -52 0 -51 0 0 -203z"/>
<path d="M2265 1177 l0 -202 113 3 c155 3 192 24 192 107 0 46 -14 71 -52 95
-28 17 -29 18 -9 25 37 11 56 68 38 118 -15 45 -52 57 -174 57 l-108 0 0 -203z
m195 143 c39 -39 19 -92 -40 -105 -23 -5 -30 -12 -30 -30 0 -18 7 -24 39 -29
68 -11 91 -67 46 -111 -20 -21 -34 -25 -80 -25 l-55 0 0 160 0 160 50 0 c37 0
55 -5 70 -20z"/>
<path d="M441 939 c63 -89 169 -165 293 -212 72 -27 95 -30 211 -33 l130 -3
-79 14 c-44 8 -109 28 -144 46 -72 35 -161 119 -192 179 l-20 40 -111 0 -110
0 22 -31z"/>
<path d="M1229 894 c-99 -102 -289 -138 -414 -78 -27 14 -41 18 -30 9 40 -32
142 -76 203 -87 79 -15 176 -1 256 37 55 26 166 123 166 146 0 6 -28 9 -74 8
-70 -2 -77 -4 -107 -35z"/>
</g>
</svg>
